<svg width="182" height="128" viewBox="0 0 182 128" fill="none" xmlns="http://www.w3.org/2000/svg">
<path d="M71.9186 113.2H72.8986L74.7886 122.16H75.2786L77.2386 113.2H78.9186L80.8786 122.16H81.3686L83.2586 113.2H84.2386L82.0686 123H80.1786L78.2886 114.04H77.8686L75.9786 123H74.0886L71.9186 113.2ZM86.9401 121.81C85.9788 120.83 85.4981 119.593 85.4981 118.1C85.4981 116.607 85.9788 115.37 86.9401 114.39C87.9014 113.41 89.1008 112.92 90.5381 112.92C91.9754 112.92 93.1748 113.41 94.1361 114.39C95.0974 115.37 95.5781 116.607 95.5781 118.1C95.5781 119.593 95.0974 120.83 94.1361 121.81C93.1748 122.79 91.9754 123.28 90.5381 123.28C89.1008 123.28 87.9014 122.79 86.9401 121.81ZM87.5701 114.964C86.7954 115.767 86.4081 116.812 86.4081 118.1C86.4081 119.388 86.7954 120.433 87.5701 121.236C88.3448 122.039 89.3341 122.44 90.5381 122.44C91.7421 122.44 92.7314 122.039 93.5061 121.236C94.2808 120.433 94.6681 119.388 94.6681 118.1C94.6681 116.812 94.2808 115.767 93.5061 114.964C92.7314 114.161 91.7421 113.76 90.5381 113.76C89.3341 113.76 88.3448 114.161 87.5701 114.964ZM97.4025 123V116H98.2425V117.33H98.2565C98.3778 117.069 98.5411 116.835 98.7465 116.63C99.2131 116.163 99.8151 115.93 100.552 115.93H101.322V116.7H100.552C99.8805 116.7 99.3251 116.929 98.8865 117.386C98.4571 117.834 98.2425 118.422 98.2425 119.15V123H97.4025ZM102.584 123V113.2H103.424V118.94H105.104L107.414 116H108.394L105.804 119.36L108.604 123H107.624L105.104 119.71H103.424V123H102.584Z" fill="black"/>
<rect x="91.0139" y="43" width="1" height="50.5121" fill="black"/>
<rect x="111.014" y="61.8182" width="0.990433" height="40" transform="rotate(90 111.014 61.8182)" fill="black"/>
<rect width="0.995228" height="39.8091" transform="matrix(0.710497 0.7037 -0.710497 0.7037 105.156 48.8018)" fill="black"/>
<rect width="0.995228" height="39.8091" transform="matrix(-0.710497 0.7037 -0.710497 -0.7037 105.863 76.1151)" fill="black"/>
<path d="M87.0139 89.5503L91.5066 94L95.9992 89.5503" stroke="black"/>
<path d="M10.4087 84.6845L10.5203 83.7814C10.9253 83.6998 11.2875 83.547 11.6067 83.3231C12.3468 82.8127 12.7793 82.0527 12.9041 81.043C13.0116 80.1723 12.9088 79.4825 12.5955 78.9736C12.2834 78.4554 11.8494 78.1619 11.2936 78.0933C11.1454 78.075 11.0088 78.0769 10.8838 78.0991C10.76 78.112 10.6373 78.1532 10.5159 78.2229C10.3944 78.2925 10.2921 78.3598 10.2088 78.4247C10.1174 78.4793 10.0203 78.5801 9.91749 78.7273C9.80541 78.8733 9.72048 78.9898 9.66272 79.0767C9.60611 79.1543 9.52759 79.2951 9.42716 79.499C9.31747 79.7017 9.24301 79.8477 9.20377 79.9369C9.16454 80.0261 9.09242 80.1912 8.98742 80.4321C8.87315 80.6719 8.79697 80.8318 8.75888 80.9117C8.61121 81.2696 8.47561 81.5679 8.35208 81.8066C8.22855 82.0452 8.07436 82.3036 7.88953 82.5817C7.69544 82.8587 7.49895 83.0789 7.30007 83.2424C7.10232 83.3967 6.8617 83.5174 6.5782 83.6046C6.2947 83.6919 5.99085 83.7154 5.66664 83.6754C4.94414 83.5861 4.36129 83.2038 3.91811 82.5283C3.47493 81.8529 3.31514 81.0149 3.43874 80.0146C3.60127 78.6992 4.15731 77.7382 5.10689 77.1314C5.51518 76.8715 5.96759 76.7111 6.46414 76.6502L6.35255 77.5533C6.01576 77.6151 5.70801 77.7464 5.4293 77.947C4.77821 78.4215 4.39258 79.145 4.2724 80.1176C4.17741 80.8864 4.27958 81.5056 4.57893 81.9752C4.86901 82.4436 5.26878 82.7093 5.77823 82.7723C6.41737 82.8512 6.97542 82.4829 7.45238 81.6672C7.61754 81.3961 7.89108 80.8186 8.27301 79.9348C8.44036 79.5699 8.58465 79.2773 8.70589 79.0572C8.81901 78.8267 8.97783 78.5689 9.18233 78.2838C9.37757 77.9976 9.57348 77.782 9.77008 77.637C9.96782 77.4827 10.2084 77.362 10.4919 77.2748C10.7766 77.1783 11.081 77.1501 11.4052 77.1901C12.174 77.2851 12.7911 77.6952 13.2563 78.4204C13.7135 79.1352 13.8739 80.0437 13.7377 81.146C13.566 82.5355 12.962 83.5423 11.9256 84.1666C11.4595 84.4382 10.9538 84.6108 10.4087 84.6845Z" fill="black"/>
<path d="M14.4988 69.4288C13.2652 70.0311 11.94 70.0964 10.5232 69.6244C9.10643 69.1525 8.08504 68.3057 7.45907 67.0839C6.8331 65.8621 6.74723 64.5694 7.20146 63.2057C7.69699 61.7181 8.65304 60.6937 10.0696 60.1326C10.6894 59.8964 11.3416 59.7841 12.0264 59.7957L11.7388 60.6591C11.2105 60.6799 10.7058 60.7921 10.2248 60.9959C9.13282 61.4684 8.3907 62.2935 7.99841 63.4712C7.61792 64.6135 7.68603 65.6789 8.20275 66.6676C8.71946 67.6562 9.58882 68.354 10.8108 68.7611C12.0328 69.1681 13.147 69.131 14.1533 68.6497C15.1597 68.1684 15.8531 67.3566 16.2336 66.2143C16.6347 65.01 16.5105 63.8767 15.861 62.8143C15.5805 62.3569 15.21 61.9482 14.7495 61.5882L15.0371 60.7248C15.6274 61.1379 16.1145 61.6395 16.4983 62.2297C17.3605 63.54 17.5378 64.9567 17.0305 66.4797C16.5763 67.8434 15.7324 68.8264 14.4988 69.4288Z" fill="black"/>
<path d="M21.5054 54.8952L13.0328 49.9702L15.0732 46.4602C15.6079 45.5403 16.2697 44.9588 17.0588 44.7157C17.8444 44.4599 18.6246 44.5571 19.3992 45.0074C20.0609 45.392 20.5068 45.9157 20.7369 46.5785C20.9717 47.2331 20.9392 47.9484 20.6394 48.7241L25.2343 48.4802L24.7066 49.388L20.2074 49.6065L18.6947 52.2088L21.9627 54.1085L21.5054 54.8952ZM17.9685 51.7867L19.5515 49.0634C19.969 48.3452 20.1219 47.7108 20.0102 47.16C19.8951 46.5966 19.539 46.1413 18.9419 45.7942C18.3448 45.4471 17.7769 45.3653 17.2384 45.5489C16.6965 45.7197 16.2168 46.1642 15.7994 46.8823L14.2164 49.6056L17.9685 51.7867Z" fill="black"/>
<path d="M29.2715 40.8892C27.9001 40.9499 26.6587 40.4814 25.5475 39.4838C24.4362 38.4863 23.8371 37.3025 23.75 35.9324C23.6629 34.5624 24.0995 33.3426 25.0597 32.273C26.0198 31.2034 27.1856 30.6383 28.5571 30.5776C29.9285 30.5169 31.1699 30.9853 32.2811 31.9829C33.3924 32.9805 33.9915 34.1643 34.0786 35.5343C34.1657 36.9044 33.7291 38.1242 32.7689 39.1937C31.8088 40.2633 30.643 40.8285 29.2715 40.8892ZM24.598 35.8471C24.6778 36.9597 25.1969 37.9463 26.1554 38.8067C27.1138 39.6671 28.1504 40.0772 29.2652 40.0369C30.38 39.9966 31.3396 39.5285 32.1439 38.6326C32.9482 37.7367 33.3104 36.7324 33.2306 35.6197C33.1508 34.507 32.6317 33.5205 31.6732 32.6601C30.7148 31.7997 29.6782 31.3896 28.5634 31.4298C27.4486 31.4701 26.489 31.9382 25.6847 32.8342C24.8804 33.7301 24.5182 34.7344 24.598 35.8471Z" fill="black"/>
<path d="M41.5197 30.3834L35.6119 22.5643L36.338 22.0158L41.7394 29.1646L45.9841 25.9575L46.4904 26.6277L41.5197 30.3834Z" fill="black"/>
<path d="M52.1954 23.0948L47.6657 14.4045L48.4727 13.9838L52.6141 21.9293L57.3317 19.4704L57.72 20.2152L52.1954 23.0948Z" fill="black"/>
<path d="M69.6913 6.50406L69.5308 5.67952L77.2952 4.16861L77.4556 4.99315L74.0201 5.66169L75.7316 14.4567L74.8383 14.6305L73.1268 5.83551L69.6913 6.50406Z" fill="black"/>
<path d="M87.1611 11.8235C86.206 10.8373 85.7333 9.59762 85.7429 8.10432C85.7524 6.61102 86.241 5.37745 87.2086 4.40363C88.1762 3.42981 89.3787 2.9475 90.816 2.95671C92.2533 2.96592 93.4494 3.46359 94.4045 4.44973C95.3595 5.43587 95.8322 6.67559 95.8227 8.16889C95.8131 9.6622 95.3245 10.8958 94.3569 11.8696C93.3893 12.8434 92.1869 13.3257 90.7496 13.3165C89.3123 13.3073 88.1161 12.8096 87.1611 11.8235ZM87.8349 4.98166C87.0551 5.77934 86.6611 6.82217 86.6529 8.11015C86.6446 9.39812 87.0252 10.4459 87.7947 11.2535C88.5643 12.0611 89.551 12.4688 90.755 12.4765C91.9589 12.4842 92.9508 12.0892 93.7306 11.2916C94.5104 10.4939 94.9044 9.45104 94.9127 8.16306C94.9209 6.87509 94.5403 5.8273 93.7708 5.01969C93.0013 4.21207 92.0146 3.80441 90.8106 3.7967C89.6066 3.78898 88.6147 4.18397 87.8349 4.98166Z" fill="black"/>
<path d="M111.887 15.9659L114.973 6.66444L121.285 8.75834L121.02 9.55562L115.572 7.74824L114.448 11.1367L118.9 12.6134L118.635 13.4107L114.184 11.9339L113.016 15.4552L118.464 17.2626L118.199 18.0599L111.887 15.9659Z" fill="black"/>
<path d="M124.077 20.5422L128.759 17.516L128.895 12.0076L129.756 12.4772L129.637 17.5163L130.742 18.12L134.917 15.2947L135.777 15.7643L131.217 18.8576L131.204 24.4331L130.344 23.9635L130.34 18.8573L129.234 18.2536L124.937 21.0118L124.077 20.5422Z" fill="black"/>
<path d="M136.773 28.2086L142.977 20.6223L146.066 23.1482C146.889 23.8218 147.361 24.587 147.48 25.444C147.599 26.3009 147.366 27.0871 146.781 27.8023C146.196 28.5176 145.472 28.902 144.608 28.9553C143.745 29.0087 142.901 28.6987 142.077 28.0251L139.693 26.0753L137.477 28.7847L136.773 28.2086ZM140.225 25.425L142.609 27.3748C143.252 27.9007 143.877 28.1465 144.484 28.1122C145.096 28.0707 145.627 27.7754 146.076 27.2263C146.525 26.6772 146.707 26.1019 146.62 25.5003C146.539 24.8916 146.177 24.3243 145.534 23.7985L143.15 21.8487L140.225 25.425Z" fill="black"/>
<path d="M147.826 38.2256L155.284 31.868L155.874 32.5605L149.056 38.3732L152.507 42.4218L151.868 42.9667L147.826 38.2256Z" fill="black"/>
<path d="M157.278 48.5804C157.659 47.2616 158.5 46.2352 159.8 45.5014C161.101 44.7675 162.414 44.5784 163.74 44.934C165.066 45.2897 166.082 46.0934 166.788 47.3452C167.495 48.597 167.657 49.8823 167.276 51.2011C166.895 52.52 166.054 53.5463 164.754 54.2802C163.453 55.0141 162.14 55.2032 160.814 54.8475C159.488 54.4919 158.472 53.6882 157.766 52.4364C157.059 51.1846 156.897 49.8993 157.278 48.5804ZM163.55 45.7648C162.47 45.4846 161.369 45.6609 160.247 46.2939C159.126 46.9268 158.406 47.7779 158.087 48.847C157.769 49.9161 157.906 50.975 158.497 52.0236C159.089 53.0722 159.925 53.7366 161.004 54.0168C162.084 54.297 163.185 54.1206 164.307 53.4877C165.428 52.8547 166.148 52.0037 166.467 50.9345C166.785 49.8654 166.649 48.8066 166.057 47.758C165.465 46.7094 164.629 46.045 163.55 45.7648Z" fill="black"/>
<path d="M163.353 63.5273L172.689 60.5497L173.923 64.4177C174.246 65.4314 174.233 66.3123 173.884 67.0605C173.547 67.8147 172.951 68.3279 172.098 68.6001C171.368 68.8327 170.681 68.8119 170.035 68.5378C169.392 68.2727 168.884 67.7687 168.51 67.0259L165.607 70.5965L165.288 69.5962L168.145 66.1135L167.231 63.2458L163.629 64.3943L163.353 63.5273ZM168.031 62.9906L168.988 65.9916C169.24 66.783 169.608 67.3221 170.092 67.6088C170.587 67.9016 171.163 67.943 171.821 67.7332C172.479 67.5233 172.921 67.1571 173.146 66.6347C173.383 66.1183 173.375 65.4644 173.123 64.673L172.166 61.6719L168.031 62.9906Z" fill="black"/>
<path d="M167.177 77.9457L176.903 76.744L177.718 83.3438L176.885 83.4468L176.181 77.7501L172.638 78.1879L173.213 82.8425L172.379 82.9455L171.804 78.2909L168.122 78.7458L168.826 84.4425L167.992 84.5455L167.177 77.9457Z" fill="black"/>
</svg>
