<svg width="175" height="92" viewBox="0 0 175 92" fill="none" xmlns="http://www.w3.org/2000/svg">
<path d="M88 41H89V91.512H88V41Z" fill="#EF4242"/>
<path d="M108 59.8182V60.8086H68V59.8182H108Z" fill="#EF4242"/>
<path d="M102.142 46.8018L102.849 47.5021L74.5649 75.5158L73.8578 74.8154L102.142 46.8018Z" fill="#EF4242"/>
<path d="M102.849 74.1151L102.142 74.8154L73.8579 46.8018L74.565 46.1014L102.849 74.1151Z" fill="#EF4242"/>
<path d="M7.39478 82.6844L7.50637 81.7813C7.91143 81.6997 8.27356 81.5469 8.59276 81.323C9.33294 80.8126 9.7654 80.0526 9.89015 79.0429C9.99774 78.1722 9.89489 77.4824 9.5816 76.9735C9.26945 76.4553 8.83549 76.1618 8.27972 76.0932C8.13151 76.0749 7.99491 76.0768 7.86991 76.099C7.74606 76.1119 7.62341 76.1531 7.50195 76.2228C7.3805 76.2924 7.27814 76.3597 7.19488 76.4246C7.1035 76.4792 7.0064 76.58 6.90358 76.7272C6.7915 76.8732 6.70657 76.9897 6.64881 77.0766C6.5922 77.1542 6.51368 77.295 6.41325 77.4989C6.30356 77.7016 6.2291 77.8476 6.18986 77.9368C6.15063 78.026 6.07851 78.1911 5.97351 78.432C5.85924 78.6718 5.78306 78.8317 5.74497 78.9116C5.5973 79.2695 5.4617 79.5678 5.33817 79.8065C5.21464 80.0451 5.06045 80.3035 4.87562 80.5816C4.68153 80.8586 4.48504 81.0788 4.28616 81.2423C4.08841 81.3966 3.84779 81.5173 3.56429 81.6045C3.28079 81.6918 2.97694 81.7153 2.65273 81.6753C1.93023 81.586 1.34738 81.2036 0.904199 80.5282C0.461015 79.8528 0.301227 79.0148 0.424834 78.0145C0.587355 76.6991 1.1434 75.7381 2.09298 75.1312C2.50127 74.8714 2.95368 74.711 3.45023 74.6501L3.33864 75.5532C3.00185 75.615 2.6941 75.7463 2.41539 75.9469C1.7643 76.4214 1.37867 77.1449 1.25849 78.1175C1.1635 78.8863 1.26567 79.5055 1.56502 79.9751C1.8551 80.4435 2.25487 80.7092 2.76432 80.7721C3.40346 80.8511 3.96151 80.4828 4.43847 79.6671C4.60363 79.396 4.87717 78.8185 5.2591 77.9347C5.42645 77.5698 5.57074 77.2772 5.69198 77.0571C5.8051 76.8266 5.96392 76.5688 6.16842 76.2837C6.36366 75.9975 6.55957 75.7819 6.75617 75.6369C6.95391 75.4826 7.19453 75.3619 7.47803 75.2747C7.76268 75.1782 8.0671 75.15 8.39131 75.19C9.16013 75.285 9.77716 75.6951 10.2424 76.4203C10.6995 77.1351 10.86 78.0436 10.7238 79.1459C10.5521 80.5354 9.94811 81.5422 8.91173 82.1665C8.44558 82.4381 7.93993 82.6107 7.39478 82.6844Z" fill="black"/>
<path d="M11.4849 67.4288C10.2513 68.0312 8.92612 68.0964 7.50932 67.6245C6.09252 67.1525 5.07113 66.3057 4.44516 65.0839C3.81919 63.8621 3.73332 62.5694 4.18755 61.2057C4.68308 59.7181 5.63913 58.6937 7.05571 58.1327C7.67546 57.8964 8.32771 57.7841 9.01245 57.7958L8.72487 58.6591C8.19657 58.6799 7.69189 58.7922 7.21085 58.9959C6.11891 59.4684 5.37679 60.2935 4.9845 61.4712C4.60401 62.6135 4.67212 63.679 5.18884 64.6676C5.70555 65.6562 6.57491 66.354 7.7969 66.7611C9.01889 67.1681 10.1331 67.131 11.1394 66.6497C12.1457 66.1684 12.8392 65.3566 13.2197 64.2143C13.6208 63.01 13.4966 61.8767 12.847 60.8143C12.5666 60.3569 12.1961 59.9482 11.7356 59.5882L12.0231 58.7248C12.6135 59.1379 13.1006 59.6396 13.4844 60.2298C14.3465 61.54 14.5239 62.9567 14.0166 64.4798C13.5624 65.8434 12.7185 66.8264 11.4849 67.4288Z" fill="black"/>
<path d="M18.4915 52.8952L10.0189 47.9703L12.0593 44.4602C12.594 43.5403 13.2558 42.9588 14.0449 42.7158C14.8305 42.4599 15.6107 42.5572 16.3853 43.0075C17.047 43.3921 17.4928 43.9157 17.723 44.5785C17.9578 45.2332 17.9253 45.9484 17.6255 46.7241L22.2204 46.4803L21.6927 47.388L17.1935 47.6066L15.6808 50.2089L18.9488 52.1085L18.4915 52.8952ZM14.9546 49.7867L16.5376 47.0634C16.9551 46.3452 17.108 45.7108 16.9963 45.1601C16.8812 44.5966 16.5251 44.1413 15.928 43.7942C15.3309 43.4471 14.763 43.3653 14.2245 43.5489C13.6826 43.7197 13.2029 44.1642 12.7855 44.8823L11.2025 47.6057L14.9546 49.7867Z" fill="black"/>
<path d="M26.2576 38.8891C24.8861 38.9498 23.6448 38.4814 22.5335 37.4838C21.4223 36.4862 20.8231 35.3024 20.7361 33.9324C20.649 32.5624 21.0856 31.3426 22.0457 30.273C23.0059 29.2034 24.1717 28.6383 25.5432 28.5776C26.9146 28.5168 28.156 28.9853 29.2672 29.9829C30.3785 30.9805 30.9776 32.1643 31.0647 33.5343C31.1518 34.9043 30.7152 36.1241 29.755 37.1937C28.7949 38.2633 27.629 38.8284 26.2576 38.8891ZM21.5841 33.847C21.6639 34.9597 22.183 35.9462 23.1414 36.8066C24.0999 37.6671 25.1365 38.0771 26.2513 38.0369C27.3661 37.9966 28.3257 37.5285 29.13 36.6326C29.9343 35.7366 30.2965 34.7323 30.2167 33.6197C30.1369 32.507 29.6178 31.5205 28.6593 30.66C27.7009 29.7996 26.6642 29.3895 25.5495 29.4298C24.4347 29.4701 23.4751 29.9382 22.6708 30.8341C21.8665 31.7301 21.5043 32.7344 21.5841 33.847Z" fill="black"/>
<path d="M38.5058 28.3834L32.598 20.5643L33.3241 20.0157L38.7255 27.1646L42.9701 23.9575L43.4765 24.6277L38.5058 28.3834Z" fill="black"/>
<path d="M49.1815 21.0948L44.6518 12.4044L45.4588 11.9838L49.6002 19.9293L54.3178 17.4703L54.7061 18.2152L49.1815 21.0948Z" fill="black"/>
<path d="M66.6774 4.50396L66.5169 3.67942L74.2813 2.16851L74.4417 2.99304L71.0062 3.66159L72.7176 12.4566L71.8244 12.6304L70.1129 3.83541L66.6774 4.50396Z" fill="black"/>
<path d="M84.1472 9.82344C83.1921 8.8373 82.7194 7.59758 82.729 6.10428C82.7385 4.61098 83.2271 3.37741 84.1947 2.40359C85.1623 1.42977 86.3648 0.947464 87.8021 0.956672C89.2394 0.965881 90.4355 1.46355 91.3906 2.44969C92.3456 3.43583 92.8183 4.67555 92.8088 6.16885C92.7992 7.66216 92.3106 8.89572 91.343 9.86954C90.3754 10.8434 89.173 11.3257 87.7357 11.3165C86.2984 11.3073 85.1022 10.8096 84.1472 9.82344ZM84.821 2.98162C84.0412 3.7793 83.6472 4.82213 83.639 6.11011C83.6307 7.39808 84.0113 8.44587 84.7808 9.25349C85.5503 10.0611 86.5371 10.4688 87.7411 10.4765C88.945 10.4842 89.9369 10.0892 90.7167 9.29152C91.4965 8.49383 91.8905 7.451 91.8988 6.16302C91.907 4.87505 91.5264 3.82726 90.7569 3.01964C89.9874 2.21203 89.0006 1.80437 87.7967 1.79666C86.5927 1.78894 85.6008 2.18393 84.821 2.98162Z" fill="black"/>
<path d="M108.873 13.9659L111.959 4.6644L118.271 6.7583L118.007 7.55558L112.558 5.7482L111.434 9.13661L115.886 10.6134L115.621 11.4106L111.17 9.93388L110.002 13.4552L115.45 15.2625L115.185 16.0598L108.873 13.9659Z" fill="black"/>
<path d="M121.063 18.5422L125.746 15.5159L125.882 10.0076L126.742 10.4772L126.623 15.5162L127.729 16.12L131.903 13.2947L132.763 13.7642L128.203 16.8576L128.19 22.433L127.33 21.9634L127.326 16.8573L126.22 16.2535L121.923 19.0118L121.063 18.5422Z" fill="black"/>
<path d="M133.759 26.2085L139.963 18.6223L143.052 21.1482C143.875 21.8217 144.347 22.587 144.466 23.444C144.585 24.3009 144.352 25.087 143.767 25.8023C143.182 26.5176 142.458 26.9019 141.594 26.9553C140.731 27.0087 139.887 26.6986 139.063 26.0251L136.679 24.0752L134.463 26.7846L133.759 26.2085ZM137.211 23.425L139.595 25.3748C140.238 25.9007 140.863 26.1464 141.47 26.1121C142.083 26.0706 142.613 25.7753 143.062 25.2262C143.512 24.6771 143.693 24.1018 143.606 23.5003C143.525 22.8916 143.163 22.3243 142.52 21.7984L140.136 19.8486L137.211 23.425Z" fill="black"/>
<path d="M144.812 36.2256L152.27 29.8679L152.86 30.5604L146.042 36.3731L149.493 40.4217L148.854 40.9667L144.812 36.2256Z" fill="black"/>
<path d="M154.264 46.5803C154.645 45.2615 155.486 44.2351 156.786 43.5013C158.087 42.7674 159.4 42.5783 160.726 42.9339C162.052 43.2896 163.068 44.0933 163.774 45.3451C164.481 46.5969 164.643 47.8822 164.262 49.201C163.881 50.5199 163.041 51.5462 161.74 52.2801C160.439 53.014 159.126 53.2031 157.8 52.8474C156.474 52.4918 155.458 51.6881 154.752 50.4363C154.045 49.1845 153.883 47.8992 154.264 46.5803ZM160.536 43.7647C159.456 43.4845 158.355 43.6608 157.234 44.2938C156.112 44.9267 155.392 45.7778 155.073 46.8469C154.755 47.916 154.892 48.9749 155.483 50.0235C156.075 51.0721 156.911 51.7365 157.991 52.0167C159.07 52.2969 160.171 52.1205 161.293 51.4876C162.414 50.8546 163.135 50.0036 163.453 48.9344C163.771 47.8653 163.635 46.8065 163.043 45.7579C162.451 44.7093 161.616 44.0449 160.536 43.7647Z" fill="black"/>
<path d="M160.339 61.5273L169.676 58.5496L170.909 62.4177C171.232 63.4314 171.22 64.3123 170.87 65.0604C170.533 65.8146 169.937 66.3279 169.084 66.6001C168.354 66.8326 167.667 66.8119 167.021 66.5378C166.378 66.2726 165.87 65.7686 165.496 65.0258L162.593 68.5965L162.274 67.5961L165.131 64.1134L164.217 61.2457L160.615 62.3943L160.339 61.5273ZM165.017 60.9905L165.974 63.9916C166.226 64.783 166.594 65.322 167.078 65.6087C167.573 65.9015 168.149 65.943 168.807 65.7331C169.465 65.5233 169.907 65.1571 170.132 64.6346C170.369 64.1182 170.361 63.4643 170.109 62.6729L169.152 59.6718L165.017 60.9905Z" fill="black"/>
<path d="M164.163 75.9457L173.889 74.7439L174.704 81.3437L173.871 81.4467L173.167 75.7501L169.624 76.1878L170.199 80.8424L169.365 80.9455L168.79 76.2908L165.108 76.7458L165.812 82.4425L164.978 82.5455L164.163 75.9457Z" fill="black"/>
</svg>
